<?xml version="1.0" encoding="UTF-8"?>
<svg id="_Слой_1" data-name="Слой 1" xmlns="http://www.w3.org/2000/svg" viewBox="0 0 498 167">
  <defs>
    <style>
      .cls-1 {
        fill: #fff;
      }
    </style>
  </defs>
  <rect class="cls-1" x="36.86" y="20.94" width="446.86" height="136"/>
  <g>
    <path d="M249.87,165.04c-71.15,0-142.3,.02-213.46-.04-4.15,0-8.33-.33-12.43-.96-9.72-1.51-17.78-10.03-19.15-19.86-.62-4.46-.91-8.93-.91-13.44,.06-30.83,.06-61.65,0-92.48,0-4.51,.29-8.98,.91-13.44C6.27,14.55,14.71,6.19,24.98,4.82c4.46-.6,8.93-.88,13.44-.88,141.47,.03,282.94,.02,424.41,.06,4.31,0,8.66,.32,12.93,.95,10,1.46,18.13,10.08,19.43,20.12,.62,4.8,.88,9.6,.87,14.44-.05,30.66-.02,61.32-.03,91.98,0,24.93-8.65,33.54-33.71,33.54-70.82,0-141.64,0-212.46,0ZM65.62,59.75c-10.13-.02-18.35,6.35-21.55,16.23-4.81,14.82,2.85,39.77,15.17,49.64,3.79,3.04,7.92,3.45,12.15,1.5,6.46-2.98,12.7-3.02,19.2-.06,5.25,2.39,10.15,1.22,14.05-3.05,4.52-4.94,8.03-10.55,10.58-16.78,.83-2.02,.67-3.02-1.28-4.43-12.64-9.15-13.42-22.05-1.98-32.8,1.7-1.6,1.6-2.37,.2-3.82-5.54-5.72-12.47-8.48-19.93-6.17-8.15,2.52-15.79,4.33-23.77,.02-.94-.51-2.29-.24-2.84-.29Zm245.57,69.37c4.46,.25,8.63-.63,12.51-2.79,5.55-3.09,7.72-7.93,7.4-14.14-.3-5.74-3.64-9.09-8.6-11.1-2.29-.93-4.74-1.48-7.12-2.2-3.49-1.06-7.19-1.48-10.43-3.27-5.13-2.83-5.16-8.47-.12-11.49,6.06-3.63,13.75-1.82,17.08,4.45,1.84,3.47,4.8,2.4,6.89,1.81,2.7-.77,1.02-3.27,.36-4.99-.47-1.22-1.11-2.46-1.96-3.44-5.41-6.29-12.66-6.82-20.14-5.93-7.86,.94-13.57,6.51-14.11,13.25-.61,7.62,3,12.19,11.81,14.83,4.44,1.33,8.96,2.43,13.36,3.91,2.87,.96,4.77,3.05,4.77,6.31,0,3.21-1.88,5.22-4.56,6.59-6.42,3.29-14.66,1.16-18.24-4.99-2.02-3.47-5.14-2.29-7.39-1.6-2.03,.62-.68,3.21,.01,4.76,3.6,8.01,10.62,9.83,18.47,10.03Zm-108.19-6.14c2.84,2.91,5.03,4.54,7.88,5.24,10.67,2.59,18.63-4.11,19.57-17.15,.53-7.37-.86-14.51-7.82-18.75-6.82-4.15-13.33-2.65-19.66,3.13,.27-4.54-2.08-4.96-5.24-4.77-2.23,.13-2.77,1-2.76,3.03,.05,14.8,.11,29.59-.03,44.39-.03,3.16,1.73,3.01,3.81,2.9,2-.1,4.48,.81,4.3-2.9-.23-4.63-.05-9.28-.05-15.12Zm-12.91,4.72c-5.61-15.52-11.24-30.95-16.74-46.42-1.05-2.95-1.79-5.13-5.9-5.15-4.22-.02-5.44,2.05-6.41,5.29-.71,2.38-1.61,4.71-2.45,7.06-4.27,11.89-8.57,23.77-12.79,35.67-.46,1.3-2.37,3.43,.45,3.91,3.04,.53,6.31,1.27,7.82-3.47,3.31-10.41,3.57-10.32,14.42-10.32,.17,0,.33,0,.5,0,9.95,.2,7.29-1.42,10.51,7.52,2.59,7.19,2.47,7.23,10.58,5.91Zm54.02-31.99c.55-4.23-1.07-5.15-4.38-5.05-4.02,.13-2.94,2.83-2.95,4.89-.06,13.98,.04,27.95-.09,41.93-.03,2.91,1,3.67,3.75,3.61,2.56-.05,3.96-.38,3.9-3.48-.08-4.52-.54-9.11,.39-13.88,10.91,9.67,23.08,3.69,25.9-5.31,1.47-4.7,1.97-9.42,.94-14.25-3.06-14.25-15.34-18.5-27.45-8.47Zm199.4,15.56c3.33,0,6.66-.04,9.99,.01,1.89,.03,3.02-.33,3.22-2.66,1.02-11.49-9.12-20.63-20.51-18.32-7.67,1.55-12.23,6.63-13.66,15.18-1.53,9.16,1.57,17.3,7.99,21,7.66,4.42,18.95,2.52,23.53-4.03,1.03-1.47,2.78-3.57,1.54-4.86-1.4-1.46-4.12-.76-6.19-.3-.76,.17-1.25,1.46-1.93,2.17-5.39,5.6-14.47,3.46-16.9-3.9-.95-2.88-.6-4.48,2.93-4.31,3.32,.15,6.66,.03,9.99,.02Zm-48.51-1.68c.03-11.91-6.96-19.54-17.93-19.57-10.85-.03-18.12,7.82-18.06,19.53,.05,11.42,7.2,19.25,17.76,19.44,10.81,.2,18.21-7.68,18.23-19.4Zm-55,.08c0,2.83-.04,5.67,0,8.5,.13,7.81,4.09,11.27,11.8,10.39,1.99-.23,3.48-.57,3.26-3.22-.16-2.02-.09-3.57-2.86-3.37-3.33,.24-4.23-1.93-4.22-4.82,.03-5.17,.12-10.33-.04-15.49-.1-3.16,0-5.71,4.3-4.99,2.16,.36,2.86-.84,2.86-2.94,0-2.05-.54-3.31-2.79-2.94-4.21,.7-4.8-1.7-4.32-4.96,.5-3.37-.99-4.18-4.18-4.17-3.08,0-4.16,.91-3.9,3.99,.21,2.5,.91,5.6-3.6,5.24-1.97-.16-1.51,1.77-1.57,3.01-.07,1.44,.2,2.89,2.02,2.73,3.3-.29,3.31,1.71,3.23,4.06-.1,3-.02,6-.02,9Zm68.64-14.37c.69-5.29-2.26-4.52-4.73-4.55-3.3-.04-2.56,2.41-2.57,4.25-.05,9.65,.06,19.3-.07,28.95-.04,3.05,.6,4.39,4.1,4.45,3.88,.06,3.78-1.96,3.74-4.66-.09-5.99-.12-11.98,0-17.97,.11-5.23,2.81-8.61,7.77-8.49,4.45,.11,4.03-2.34,3.71-4.99-.42-3.54-3.04-2.2-5-1.91-2.59,.38-4.31,2.26-6.95,4.91ZM156.3,62.26c9.72-.03,13.74-3.6,13.78-12.23,.04-8.69-3.99-12.5-13.48-12.7-1-.02-2.01,.09-2.99-.02-3.16-.38-4.53,.74-4.36,4.13,.24,4.64,.03,9.3,.07,13.96,.07,7.68-.91,6.78,6.97,6.87Zm-59.05-21.24c.72-3.45-1.26-3.91-4.25-2.79-7.62,2.85-12.12,8.36-13.82,16.31-.74,3.46,.77,4.04,3.73,3.55,6.97-1.15,13.85-9.08,14.33-17.06Zm110.53,7.47c1.37,4.78,2.35,8.08,3.25,11.41,.39,1.45,1.08,2.3,2.72,2.36,1.75,.06,2.18-.9,2.56-2.36,1.09-4.18,2.44-8.29,3.44-12.49,.27-1.11,1.77-3.06-.83-3.58-2.26-.45-2.21,1.6-2.63,2.88-1.01,3.14-.98,6.61-3.03,10.21-1.02-3.75-1.76-6.82-2.7-9.82-.44-1.41-.2-3.52-2.79-3.35-2.37,.16-2.31,2.06-2.76,3.55-.88,2.92-1.66,5.87-2.48,8.81-1.74-3.45-2.69-6.9-3.43-10.4-.37-1.77-1.38-2.09-2.87-1.86-1.16,.18-1.13,.96-.88,1.84,1.38,4.96,2.76,9.93,4.16,14.89,.38,1.35,1.39,1.65,2.7,1.66,1.59,0,1.85-1.07,2.18-2.22,.96-3.35,1.96-6.69,3.39-11.54Zm103.99-3.39c-9.25-3.6-14.41,.02-13.82,9.01,.22,3.31,1.33,6.11,4.43,7.83,4.1,2.27,8.14-1.96,12.24-.11,0,0,.56-.79,.56-1.22,.04-7.63,.04-15.27,.02-22.9,0-1.22-.72-1.73-1.93-1.63-1.38,.1-1.48,1.08-1.49,2.11-.02,2.15,0,4.3,0,6.92Zm118.13,17.56c.59-.14,1.97-.24,3.16-.77,1.66-.74,3.94-2.09,3.16-3.8-.85-1.88-2.78-.35-4.16,.55-.68,.44-1.52,.82-2.31,.88-2.88,.19-5.26-1.2-5.35-3.98-.09-2.83,2.71-1.2,4.19-1.47,1.45-.27,3.01-.22,4.48-.03,4.47,.58,4.55-1.97,3.66-5.09-1.17-4.11-5.13-6.49-9.28-5.7-4.87,.92-7.94,5.45-7.36,10.85,.61,5.64,3.84,8.7,9.8,8.57Zm-26.9-17.23c0-2.62,.03-4.77-.01-6.92-.02-1.09,.29-2.45-1.57-2.47-1.51-.02-2.07,.73-2.07,2.13,.01,7.32,0,14.64,.02,21.96,0,1.43,.76,2.1,2.19,2.05,1.46-.06,1.41-1.15,1.42-2.13,.04-2.66,.02-5.32,.03-7.98,0-3.1,1.26-5.23,4.61-5.26,3.32-.02,4.08,2.3,4.11,5.07,.02,2.16-.11,4.33,.05,6.48,.11,1.43-.9,3.8,1.85,3.72,2.3-.07,1.51-2.17,1.59-3.49,.13-2.15,.05-4.32,.04-6.49-.05-8.76-3.84-11.06-12.27-6.66Zm-72.22,7.67c.03,6.14,3.27,9.62,8.91,9.58,5.58-.04,8.63-3.54,8.58-9.85-.05-6.03-3.53-9.87-8.84-9.79-5.32,.09-8.67,3.99-8.64,10.06Zm-37.69,1.4c0-1.33,.03-2.66,0-3.99-.16-5.64-3.78-8.49-9.26-7.18-2.44,.58-6.03,1.79-5.18,4.24,1.08,3.12,3.39-.25,5.13-.83,1.78-.6,3.34-.38,4.63,.82,.52,.48,.89,1.59,.72,2.25-.52,1.99-2.42,1.16-3.74,1.5-.64,.16-1.32,.16-1.97,.27-4.82,.83-6.73,3.09-5.8,6.86,.86,3.5,4.21,4.87,8.44,3.83,1.23-.3,2.01-2.29,3.9-.78,2.31,1.85,3.18,.37,3.15-2.02-.02-1.66,0-3.33,0-4.99Zm-19.83-1.57c-.02-6.24-3.23-9.89-8.68-9.88-5.42,.01-8.66,3.72-8.66,9.93,0,6.27,3.06,9.69,8.71,9.7,5.6,.02,8.65-3.43,8.63-9.75Zm-81.17,.13c.02-5.97-3.45-9.97-8.69-10.03-5.23-.06-8.93,3.98-9.01,9.83-.08,5.98,3.31,9.77,8.81,9.81,5.6,.05,8.88-3.49,8.89-9.62Zm48.99,1.57s-.06,0-.09,0c0-1.99,.17-4-.04-5.97-.37-3.5-2.65-5.19-5.99-5.57-2.96-.34-5.5,2.91-8.83,.89-.86-.52-1.09,1.3-1.1,2.24-.03,4.49,0,8.97-.02,13.46,0,1.47,.17,2.61,2.11,2.54,2.03-.07,1.86-1.46,1.88-2.77,.02-2.16,.07-4.32,0-6.48-.12-3.3,.36-6.3,4.54-6.15,4.14,.15,3.68,3.52,3.78,6.3,.08,2.32,.03,4.65,.06,6.98,.02,1.41,.73,2.12,2.17,2.07,1.39-.04,1.52-1.02,1.54-2.06,.02-1.83,0-3.65,0-5.48Zm112.25-1.63c0,1.83-.07,3.66,.02,5.49,.08,1.53-.59,3.7,2.08,3.64,2.44-.06,1.55-2.12,1.63-3.41,.14-2.32,.02-4.66,.05-6.98,.04-2.9,1.29-4.85,4.39-4.94,3.38-.1,4.09,2.32,4.21,5,.12,2.66,.04,5.32,.07,7.98,.01,1.21,.1,2.42,1.79,2.38,1.69-.05,1.68-1.32,1.68-2.48,.01-3.33,.14-6.66-.07-9.98-.35-5.6-4.15-7.85-9.36-5.89-.87,.33-1.25,2-2.82,.86-2.91-2.12-3.66-.34-3.65,2.36,0,2,0,3.99,0,5.99Zm37.75,9.21c.81-.13,2.25,.53,2.79-.88,.54-1.43-.63-1.7-1.7-2.36-3.38-2.1-2.96-10.24,.55-11.96,.88-.43,1.33-.78,1.3-1.72-.03-1.01-.57-1.47-1.53-1.52-1.26-.06-2.24-.37-2.38-1.91-.11-1.17,.51-2.84-1.68-2.9-2.35-.06-1.99,1.68-2.17,3.1-.11,.9-.64,1.35-1.48,1.75-1.82,.85-2.26,2.3-.15,3.04,2.12,.74,1.6,2.2,1.68,3.57,.15,2.64,.11,5.29,.32,7.92,.19,2.5,1.55,3.94,4.45,3.88Zm-144.14-13.28c0,3.64,0,7.28,0,10.91,0,1.2,.06,2.35,1.76,2.32,1.56-.02,1.95-.98,1.96-2.27,.01-7.11,0-14.22,.02-21.33,0-1.49-.31-2.59-2.16-2.53-1.81,.07-1.56,1.38-1.57,2.48-.04,3.47-.01,6.94-.01,10.42Z"/>
    <path d="M222.9,109.57c-.46,1.99-.72,4.17-1.49,6.16-1.5,3.88-4.28,6.2-8.67,6.29-4.23,.08-6.95-2.18-8.52-5.76-1.87-4.26-1.9-8.76-.21-13.1,1.59-4.08,4.49-6.46,9.16-6.23,4.68,.23,7.19,3.06,8.59,7.12,.59,1.71,.75,3.57,1.14,5.54Z"/>
    <path d="M174.93,107.91c-4.58,0-8.52-.05-12.46,.02-1.89,.03-2.91-.49-2.21-2.56,1.91-5.64,3.84-11.26,5.74-16.91,.27-.8,.48-1.58,1.68-2.03,2.35,6.97,4.7,13.93,7.24,21.48Z"/>
    <path d="M263.98,109.56c.11,3.23-.58,6.12-2.39,8.63-3.92,5.43-11.61,5.27-15.08-.45-3.07-5.05-3.17-10.44-.54-15.73,1.69-3.39,4.49-5.21,8.44-5.14,3.76,.07,6.22,2.01,7.95,5.12,1.32,2.39,1.81,4.98,1.63,7.56Z"/>
    <path d="M439.33,105.91c-1.65,0-3.31,.12-4.95-.04-1.35-.13-3.24,.85-3.91-.92-.53-1.4,.48-2.87,1.27-4.12,1.92-3.03,4.78-4.64,8.3-4.49,3.52,.15,6.29,1.89,7.82,5.2,1.22,2.65,1.69,4.85-2.59,4.4-1.96-.21-3.96-.04-5.94-.03Z"/>
    <path d="M367.09,109.49c-.02-9.36,5.5-14.77,12.79-12.54,4.48,1.37,6.98,5.53,7.11,11.88,.14,6.51-2.29,11.4-6.44,12.93-7.39,2.73-13.45-2.8-13.46-12.27Z"/>
    <path d="M153.26,49.75c0-.99,0-1.98,0-2.98,0-5.85,2.25-7.36,7.8-5.23,4.31,1.65,6.35,7.18,4.51,12.21-1.39,3.77-6.92,6.34-10.73,5.13-1.51-.48-1.54-1.53-1.55-2.69-.03-2.15,0-4.3,0-6.45,0,0-.01,0-.02,0Z"/>
    <path d="M301.93,52.49c.09-3.05,1.1-5.83,5.04-5.69,3.91,.14,4.89,3.22,4.83,6.35-.07,3.16-1.3,6.16-5.19,6.02-3.91-.15-4.68-3.1-4.67-6.67Z"/>
    <path d="M424.16,51c.68-3.34,2.41-4.57,4.68-4.59,2.07-.02,4.15,1.08,4.01,3.39-.12,2.11-2.31,.99-3.56,1.15-1.57,.2-3.18,.05-5.13,.05Z"/>
    <path d="M344.74,53.11c-.61,3.01-1.15,6.19-5.18,6.1-4.33-.09-4.89-3.32-4.83-6.66,.06-3.3,1.19-6.04,5.15-5.83,3.97,.2,4.42,3.35,4.85,6.39Z"/>
    <path d="M286.41,54.06c1.2,.15,2.93-.6,2.73,1.71-.24,2.75-2.33,3.62-4.51,3.73-1.55,.08-3.73-.56-3.36-2.75,.46-2.77,3.02-2.56,5.14-2.69Z"/>
    <path d="M259.68,52.73c.23-3.13,1.04-6.03,4.98-6.03,3.95,0,4.95,3.04,4.97,6.16,.03,3.35-1.03,6.5-5.27,6.34-4-.14-4.5-3.23-4.68-6.48Z"/>
    <path d="M188.26,53.14c-.21,3.05-.93,6.06-4.89,6.06-4.23,0-5.09-3.18-5.05-6.54,.04-3.25,1.23-6.07,5.13-5.96,3.95,.11,4.64,3.08,4.8,6.43Z"/>
  </g>
</svg>