<?xml version="1.0" encoding="UTF-8"?>
<svg id="_Слой_1" data-name="Слой 1" xmlns="http://www.w3.org/2000/svg" viewBox="0 0 566.93 566.93">
  <defs>
    <style>
      .cls-1 {
        fill: #fff;
      }
    </style>
  </defs>
  <path class="cls-1" d="M566.93,110.71c-9.83,15.7-22.29,29.2-36.07,41.6-5.57,5.1-11.55,9.8-17.63,14.3-2.43,1.8-3.24,3.7-3.14,6.7,1.42,42.1-5.27,83-20.16,122.5-31.82,84.2-87.14,147.9-170.33,186.5-30.9,14.4-63.63,22.7-97.58,26.7-53.7,6.4-105.99,1-156.96-17.2-21.79-7.8-42.56-17.9-62.22-30-.61-.4-1.22-.9-2.84-2.1,42.25,4.2,81.87-1,119.97-17,18.24-7.7,35.06-17.6,51.98-30.4-25.74-1.1-47.93-8.6-67.38-23.1-19.45-14.4-33.03-33-41.04-56.7,17.43,2,34.05,2.5,50.77-2-57.66-16.9-88.16-54.5-92.41-114,9.32,3.4,17.33,6.9,25.64,9.2,8.11,2.3,16.62,3.4,25.43,4.2-24.12-18.4-40.23-41.5-46.71-70.6-6.38-29-2.03-56.5,12.87-82.6,63.13,73.3,142.67,113.6,239.84,120.3-.71-7.1-1.62-13.3-2.03-19.6-3.95-57.6,37.29-109.8,95.86-120.1,38.91-6.9,72.35,4.5,101.02,30.3,3.55,3.2,6.48,4.2,11.04,3.1,22.09-5.3,43.17-13.1,63.03-24.2,1.11-.6,2.33-1.1,4.56-2.1-9.12,26.7-25.43,46.5-48.03,61.6,.2,.4,.3,.8,.51,1.2,7.09-1.3,14.39-2.1,21.28-4,12.36-3.4,24.42-7.6,36.68-11.4,1.22-.5,2.63-.7,4.05-1.1h0Z"/>
</svg>