<?xml version="1.0" encoding="UTF-8"?>
<svg id="_Слой_1" data-name="Слой 1" xmlns="http://www.w3.org/2000/svg" viewBox="0 0 563.64 167.87">
  <defs>
    <style>
      .cls-1 {
        fill: #04e976;
      }

      .cls-2 {
        fill: #00dcfe;
      }

      .cls-3 {
        fill: #fcd501;
      }

      .cls-4 {
        fill: #17ca7a;
      }

      .cls-5 {
        fill: #00d3fe;
      }

      .cls-6 {
        fill: #00cffe;
      }

      .cls-7 {
        fill: #00d7fe;
      }

      .cls-8 {
        fill: #ed2f4c;
      }

      .cls-9 {
        fill: #fafafa;
      }

      .cls-10 {
        fill: #a5a5a5;
      }

      .cls-11 {
        fill: #f5f5f5;
      }

      .cls-12 {
        fill: #f93746;
      }

      .cls-13 {
        fill: #00cbfe;
      }

      .cls-14 {
        fill: #f43448;
      }

      .cls-15 {
        fill: #f0324a;
      }

      .cls-16 {
        fill: #fdbe00;
      }

      .cls-17 {
        fill: #929292;
      }

      .cls-18 {
        fill: #e12951;
      }

      .cls-19 {
        fill: #00dffe;
      }

      .cls-20 {
        fill: #fdfdfd;
      }

      .cls-21 {
        fill: #fdcb00;
      }

      .cls-22 {
        fill: #fec400;
      }

      .cls-23 {
        fill: #fbfbfb;
      }

      .cls-24 {
        fill: #2ce787;
      }

      .cls-25 {
        fill: #e62d4f;
      }

      .cls-26 {
        fill: #0cdc77;
      }

      .cls-27 {
        fill: #050505;
      }

      .cls-28 {
        fill: #fed425;
      }

      .cls-29 {
        fill: #0b0b0b;
      }

      .cls-30 {
        fill: #06e577;
      }

      .cls-31 {
        fill: #cf2952;
      }

      .cls-32 {
        fill: #00c3fe;
      }

      .cls-33 {
        fill: #fdc800;
      }

      .cls-34 {
        fill: #00ef76;
      }

      .cls-35 {
        fill: #ececec;
      }

      .cls-36 {
        fill: #010101;
      }

      .cls-37 {
        fill: #fdd000;
      }

      .cls-38 {
        fill: #fc3944;
      }

      .cls-39 {
        fill: #fefefe;
      }

      .cls-40 {
        fill: #00c7fe;
      }

      .cls-41 {
        fill: #fcfcfc;
      }
    </style>
  </defs>
  <path class="cls-10" d="M0,20.06C1.58,8.35,8.5,1.99,19.94,.14c1.77,.71,3.63,.36,5.44,.36,170.93,.02,341.85,.02,512.78,0,1.82,0,3.67,.32,5.45-.33,4.61,1.26,8.89,2.46,12.64,6.24,4.63,4.66,7.3,9.68,7.32,16,.08,41.05,.11,82.1,0,123.16-.03,11.09-8.02,21.02-19.97,22.15-1.78-.66-3.63-.33-5.45-.33-170.93-.02-341.85-.02-512.78,0-1.81,0-3.67-.35-5.44,.36C8.31,166.06,1.68,159.41,0,147.8c.61-1.27,.37-2.62,.37-3.94,.01-39.96,.01-79.91,0-119.87,0-1.32,.24-2.67-.37-3.94Z"/>
  <path class="cls-17" d="M543.61,.16c-1.57,1.45-3.5,.8-5.26,.8-171.06,.03-342.11,.03-513.17,0-1.76,0-3.69,.66-5.24-.83C21.77,.09,23.6,0,25.43,0,196.33,0,367.22,0,538.12,0c1.83,0,3.66,.1,5.49,.16Z"/>
  <path class="cls-17" d="M19.94,167.73c1.55-1.48,3.49-.83,5.24-.83,171.06-.03,342.11-.03,513.17,0,1.76,0,3.69-.65,5.25,.81-1.5,.05-2.99,.16-4.49,.16-171.56,0-343.12,0-514.69,0-1.5,0-2.99-.09-4.49-.13Z"/>
  <path class="cls-17" d="M0,20.06c1.4,1.38,.84,3.14,.84,4.74,.03,39.42,.03,78.84,0,118.27,0,1.6,.57,3.36-.84,4.73C0,105.22,0,62.64,0,20.06Z"/>
  <path d="M281.76,163.87c-85.62,0-171.25,0-256.87,0-11.43,0-18.28-4.62-20.37-13.76-.4-1.76-.47-3.62-.47-5.44-.03-40.46-.03-80.92-.02-121.38,0-11.88,6.9-18.94,18.77-19.28,1.17-.03,2.33,0,3.5,0,170.25,0,340.5,0,510.75,0,1.5,0,3-.02,4.5,.05,10.68,.51,17.9,7.47,17.93,18.15,.14,41.13,.13,82.26,0,123.38-.03,10.68-7.21,17.7-17.85,18.23-1.83,.09-3.66,.06-5.5,.06-84.79,0-169.58,0-254.38,0Z"/>
  <path class="cls-20" d="M212.19,96.42c2.33,0,4.66,0,7,0,6.27,0,6.45,.19,6.03,6.31-.93,13.53-9.34,22.56-22.3,23.97-14.05,1.52-27.21-7.37-30.75-20.78-3.32-12.61,3.26-26.51,15.45-31.81,9.46-4.11,18.8-3.68,27.46,2.35,1.15,.8,4.28,1.55,2.03,3.82-1.59,1.61-2.44,5.34-6.58,2.68-9.88-6.35-21.03-4.13-27.22,4.87-5.79,8.42-4.2,20.22,3.57,26.61,7.93,6.51,19.58,6.05,26.29-1.06,.79-.84,1.55-1.76,2.12-2.75,2.88-5.02,2.21-6.17-3.48-6.18-2.67,0-5.35-.19-7.99,.05-3.3,.3-4.64-.53-4.66-4.25-.02-3.77,1.72-3.99,4.55-3.84,2.82,.15,5.66,.03,8.49,.03Z"/>
  <path class="cls-20" d="M331.64,123.36c-6.45,4.66-12.74,4.55-18.77,.29-6.32-4.46-8.66-10.81-7.15-18.34,1.48-7.36,6.11-11.98,13.4-13.79,1.58-.39,3.41-.72,4.91-.3,3.94,1.11,7.61,2.78,11.92,.99,2.42-1,3.78,.36,3.72,3.36-.18,9.64,.09,19.3-.11,28.94-.19,9.42-4.22,15.31-11.36,17.4-7.68,2.24-15.2-.11-19.48-6.26-.77-1.11-3.15-2.86-.87-3.87,1.94-.86,4.27-4.66,7.03-.57,2.77,4.11,6.9,5.24,11.41,3.52,4.78-1.83,5.77-5.98,5.36-11.35Z"/>
  <path class="cls-20" d="M405.74,99.92c0-7.66,.14-15.32-.07-22.97-.08-2.93,.89-3.68,3.67-3.57,5.15,.2,10.33-.07,15.48,.08,10.06,.3,17,7.14,16.91,16.48-.09,9.24-7.31,15.88-17.38,15.98q-10.44,.11-10.44,10.64c0,1.5-.09,3,.02,4.49,.22,2.91,.16,4.8-3.95,4.88-4.35,.08-4.35-1.9-4.28-5.04,.15-6.99,.05-13.98,.05-20.97Z"/>
  <path class="cls-34" d="M99.81,59.01c4.68,2.47,9.37,4.93,14.05,7.4-.45,2.12-1.88,3.57-3.36,5-1.78,1.69-3.51,3.42-5.2,5.2-2.91,2.56-5.17,5.81-8.54,7.87-.71,.21-1.41,.18-2.11-.08-11.18-10.02-21.39-21.04-32.03-31.61-.83-.82-1.43-1.82-1.57-3.03,1.3-4.44,3.69-7.67,8.81-7.79,8.5,3.45,15.74,9.2,23.95,13.17,1.53,2.01,4.23,2.22,5.99,3.87Z"/>
  <path class="cls-20" d="M480.52,104.55c-1.35-5.98-8.24-8.57-12.9-4.3-3.49,3.19-5.4-.09-7.82-.79-1.56-.46-.12-1.97,.45-2.82,3.22-4.81,11.02-6.87,18.1-4.85,6.43,1.83,10.21,6.44,10.35,12.96,.12,5.82,.07,11.64,0,17.45-.02,1.19,.73,3.18-1,3.36-2.16,.23-5.4,1.42-6.41-.71-1.2-2.54-1.64-1.33-2.83-.47-.92,.67-1.99,1.2-3.07,1.58-5.28,1.86-11.75,.24-15-3.86-2.96-3.74-3.39-7.87-1.18-12.12,2.28-4.4,9.26-7.47,15.14-6.71,2.07,.27,4.1,.84,6.19,1.28Z"/>
  <path class="cls-20" d="M266.61,108.78c.03-10.27,7.72-17.82,18.02-17.69,9.98,.13,17.59,7.77,17.64,17.74,.06,10.18-7.73,17.95-17.94,17.91-10.36-.04-17.76-7.54-17.72-17.96Z"/>
  <path class="cls-20" d="M245.44,126.74c-10.26-.09-17.94-7.87-17.8-18.06,.13-10.16,8.02-17.74,18.29-17.59,9.86,.15,17.69,8.04,17.68,17.83,0,10.03-8.03,17.91-18.17,17.82Z"/>
  <path class="cls-20" d="M372.33,126.76c-5.68-.2-11.35-3.24-14.59-10.16-2.97-6.36-1.8-15.12,2.88-20.08,4.76-5.04,10.6-6.63,17.27-4.61,4.59,1.39,7.42,4.77,9.7,8.81,1.52,2.69,1.42,4.22-1.93,5.4-5.78,2.04-11.32,4.75-17.07,6.86-3.66,1.34-2.75,2.77-.58,4.57,3.4,2.82,8.94,2.94,12.26-.66,3.52-3.82,5.55-.36,7.25,1.21,2.33,2.15-.98,3.27-2.07,4.38-2.9,2.93-6.97,4.23-13.11,4.29Z"/>
  <path class="cls-20" d="M489.18,92.65c6.25-1.85,9.53,.04,11.24,5.79,1.54,5.19,4,10.11,6.49,16.23,2.26-5.74,4.13-10.5,6-15.26q2.98-7.59,11.8-7.12c-2.73,6.35-5.38,12.55-8.07,18.73-3.96,9.12-7.93,18.25-11.94,27.35-1.15,2.61-5.82,4.15-8.3,2.94-.77-.38-.96-.83-.71-1.52,.28-.78,.54-1.6,1.01-2.26,6.83-9.49,5.62-18.75-.11-28.36-3.02-5.06-4.89-10.8-7.41-16.52Z"/>
  <path class="cls-19" d="M43.86,135.5c-1.79-1.59-1.97-3.77-1.97-5.9,0-12.22,.08-24.43,.13-36.65,1.88-.66,3.27,.41,4.41,1.55,6.3,6.31,13.04,12.18,18.68,19.14,.28,1.01-.14,1.84-.68,2.64-2.56,2.85-5.41,5.44-8.04,8.23-3.81,3.51-7.14,7.53-11.19,10.8-.43,.2-.88,.26-1.34,.19Z"/>
  <path class="cls-39" d="M453.9,99.38c0,7.63-.2,15.27,.09,22.89,.13,3.59-1.68,3.48-4.23,3.53-2.69,.05-4.16-.14-4.11-3.6,.21-15.09,.22-30.19,0-45.28-.05-3.57,1.63-3.51,4.19-3.55,2.66-.04,4.3,.13,4.16,3.62-.28,7.45-.09,14.93-.09,22.39Z"/>
  <path class="cls-41" d="M344.59,99.94c0-7.63,.19-15.27-.09-22.89-.12-3.4,1.33-3.71,4.1-3.7,2.78,.01,4.13,.4,4.09,3.76-.2,14.93-.21,29.86,0,44.79,.05,3.65-1.52,3.81-4.4,3.95-3.28,.16-3.83-1.13-3.76-4.01,.18-7.3,.06-14.6,.06-21.9Z"/>
  <path class="cls-5" d="M42.02,71.96c0-3.66,0-7.32,0-10.98,1.67-.63,3.01,.21,4.05,1.25,11.79,11.71,23.98,23.03,35.05,35.45,.3,2.27-1.48,3.36-2.69,4.79-1.08,.94-2.1,2.01-3.74,1.76-6.32-4.82-11.44-10.9-17.08-16.44-5.28-5.19-10.72-10.23-15.59-15.82Z"/>
  <path class="cls-7" d="M42.02,71.96c2.53,1.04,4.39,2.94,6.22,4.87,8.81,9.24,18.51,17.61,26.73,27.43,.03,2.07-1.68,3.03-2.79,4.38-1.03,.95-2.06,1.89-3.6,1.86-1.21-.17-2.13-.87-2.94-1.69-7.89-7.94-16.06-15.6-23.62-23.86,0-4.32,0-8.65,0-12.97Z"/>
  <path class="cls-32" d="M61.85,49.95c9.91,10.01,19.83,20.03,29.73,30.05,1.28,1.3,2.48,2.67,3.72,4-.14,2.08-1.42,3.08-3.31,3.51-2.42-.15-3.73-2.02-5.22-3.51-13.63-13.58-27.22-27.2-40.85-40.78-1.79-1.78-3.47-3.57-3.81-6.21-.16-1.69,.09-3.21,1.72-4.17,3.66-.02,4.89,3.36,7.19,5.21,1.51,1.22,2.8,2.72,4.17,4.11,.79,.81,1.59,1.63,2.41,2.42,1.71,1.56,3.19,3.3,4.27,5.37Z"/>
  <path class="cls-40" d="M42.1,37.02c2.34,2.57,4.59,5.24,7.04,7.71,12.92,12.98,25.89,25.92,38.86,38.86,1.28,1.28,2.38,2.82,4.18,3.48,.1,.47,.05,.92-.15,1.36-1.15,1.49-2.24,3.1-4.51,2.76-4.01-2.74-7.07-6.49-10.45-9.89-11.69-11.76-23.7-23.22-35.06-35.32,.03-2.98,.05-5.97,.08-8.95Z"/>
  <path class="cls-6" d="M81.19,98.06c-9.09-7.48-16.67-16.5-25.26-24.49-4.58-4.26-8.19-9.6-13.91-12.59,0-2.67,0-5.35,0-8.02,1.95-1.31,3.15,.24,4.23,1.32,12.93,13,26.24,25.63,38.76,39.04,.2,.44,.29,.89,.26,1.38-.79,1.81-1.9,3.23-4.08,3.35Z"/>
  <path class="cls-13" d="M84.95,93.97c-11.77-10.45-22.29-22.18-33.69-33.02-2.94-2.8-5.09-6.58-9.25-7.99,0-2.33,0-4.66,0-7,1.28,.02,2.13,.79,2.97,1.63,13.87,13.87,27.75,27.74,41.6,41.63,.57,.57,.93,1.36,1.38,2.04-.17,1.84-1.03,2.89-3.01,2.7Z"/>
  <path class="cls-9" d="M194.48,44.89c-2.39,0-4.71-.04-7.03,.02-1.36,.03-1.66-.65-1.62-1.83,.03-1.07,.07-2.02,1.5-2.02,3.16,0,6.33,0,9.49-.01,2.41,0,1.91,1.78,1.94,3.2,.11,5.64-4.41,10.73-10.28,11.61-6.98,1.05-13.71-3.19-15.41-9.71-1.37-5.26,.56-11.24,4.64-14.37,4.22-3.23,10.71-3.81,14.95-1.08,1.12,.72,3.59,1.12,2.13,3.52-1.35,2.22-2.57,.74-4.02-.07-5.17-2.88-10.81-.85-13.16,4.59-2.24,5.19,.37,11.09,5.72,12.92,5.03,1.72,9.66-1,11.17-6.76Z"/>
  <path class="cls-9" d="M318.74,37.49c0,4.94,.03,9.89-.02,14.83-.01,1.17,.6,2.75-1.64,2.84-2.27,.09-2.27-1.25-2.26-2.87,.03-6.32-.04-12.64,.05-18.96,.02-1.31-.91-3.22,1.27-3.76,1.93-.48,3.5,.05,4.62,1.92,3,4.97,6.11,9.86,10.06,16.2,0-5.83-.01-10.29,0-14.75,0-1.59-.5-3.52,2.21-3.46,2.54,.06,1.78,1.96,1.79,3.27,.06,6.32,.07,12.64-.01,18.96-.02,1.15,.86,2.85-1.08,3.33-1.77,.45-3.13-.11-4.16-1.82-3.25-5.37-6.63-10.65-9.96-15.97-.3,.08-.59,.16-.89,.25Z"/>
  <path class="cls-23" d="M284.81,42.06c.1-7.86,5.65-13.17,13.61-13.02,7.33,.14,12.93,6.06,12.83,13.54-.1,7.75-5.88,13.4-13.61,13.3-7.68-.1-12.94-5.77-12.84-13.83Z"/>
  <path class="cls-9" d="M209.48,55.14q-7.61,0-7.61-7.44c0-4.98-.02-9.95,.02-14.93,0-.94,.07-2.02,.53-2.78,.54-.9,14-.8,14.6,.05,.34,.49,.47,1.23,.44,1.84-.06,1.24-.96,1.61-2.06,1.61-1.83,0-3.65,.06-5.48,0-2.4-.08-4.34-.33-4.3,3.38,.04,3.38,1.37,3.54,4.08,3.71,2.2,.14,6.36-2.02,6.3,1.94-.04,3.28-4.04,1.47-6.13,1.49-3.13,.03-4.18,.73-4.25,4.1-.08,3.78,2.07,2.99,4.31,3.45,2.53,.52,7.25-2.28,7.18,2.06-.05,3.29-4.7,.71-7.15,1.52-.15,.05-.33,0-.5,0Z"/>
  <path class="cls-12" d="M84.95,93.97c1.43-.42,2.31-1.46,3.01-2.7,1.3-1.06,2.61-2.12,3.91-3.17,3.18,2.34,5.9,5.24,8.36,8.23,3.19,3.87,6.91,5.87,11.85,5.71-2.04,1.82-4.38,3.13-6.97,3.99-8.36,4.1-8.49,4.22-14.88-2.56-2.28-2.42-6.49-3.89-5.41-8.53-.03-.33,0-.65,.11-.97Z"/>
  <path class="cls-2" d="M42.02,84.94c2.28,.14,3.29,2.07,4.7,3.39,7.6,7.12,14.31,15.16,22.46,21.71-.37,2.42-1.56,3.96-4.22,3.91-6.35-5.07-11.59-11.28-17.42-16.88-1.68-1.62-3.35-3.18-5.52-4.12,0-2.67,0-5.35,0-8.02Z"/>
  <path class="cls-33" d="M109.66,70.89c1.4-1.49,2.8-2.98,4.2-4.48,.52,2.1,3.1,1.76,4.02,3.38,1.06,1.37,1.47,2.96,1.46,4.65-.06,7.94,.47,15.89-.35,23.82-1.54,1.4-3.35,2.31-5.28,3.01-2.33-.38-3.52-1.78-3.66-4.12,.32-8.76,.87-17.53-.4-26.27Z"/>
  <path class="cls-35" d="M227.03,44.37c0-1.66-.04-3.31,0-4.97,.09-3.33,.65-6.95-4.76-5.9-1.3,.25-2.2-.47-2.23-1.96-.03-1.46,.72-2.12,2.11-2.12,4.64-.01,9.27,0,13.91-.02,1.35,0,2.23,.38,2.3,1.9,.08,1.77-.86,2.51-2.44,2.22-4.48-.82-4.76,1.74-4.59,5.16,.2,4.13,.14,8.28,0,12.41-.05,1.53,1.12,3.95-2,4.07-3.13,.13-2.19-2.23-2.26-3.84-.11-2.31-.03-4.63-.03-6.95Z"/>
  <path class="cls-35" d="M266.08,29.4c2.15,0,4.31,.01,6.46,0,1.38,0,2.71-.05,2.8,1.89,.08,1.76-.85,2.52-2.43,2.23-4.46-.81-4.9,1.72-4.58,5.15,.17,1.81,.35,3.71-.04,5.45-.81,3.66,2.25,10.57-1.95,10.41-5.26-.21-1.2-6.94-2.22-10.67-.59-2.16-.25-4.62-.07-6.92,.2-2.54-.61-3.64-3.29-3.43-1.48,.12-3.68,.69-3.69-1.95-.01-3.02,2.44-1.99,4.05-2.12,1.65-.13,3.31-.03,4.97-.03Z"/>
  <path class="cls-14" d="M84.84,94.94c2.61,5.72,7.99,8.95,12.08,13.34,.97,1.05,2.15-.06,3.17-.48,1.65-.68,3.09-1.94,5.04-1.77-2.08,1.77-4.44,3.07-7.01,4-2.44,1.3-5.14,2.12-7.23,4.04l.07-.05c-1.45,.6-2.95,.75-4.2-.27-3.31-2.7-6.4-5.64-8.96-9.09-.62-.83-.72-1.82,.04-2.71,1.11-1.29,2.23-2.59,3.34-3.88,1.22-1.04,2.44-2.08,3.65-3.12Z"/>
  <path class="cls-38" d="M110.74,98.08c.99,1.07,1.98,2.14,2.97,3.2-.54,.25-1.08,.5-1.62,.75-4.77,2.49-8.1,.53-11.03-3.33-2.83-3.73-7.41-5.95-9.18-10.61,.1-.34,.2-.69,.31-1.03,1.04-1.02,2.07-2.04,3.11-3.06,.43-.02,.85-.04,1.28-.06,4.34,1.49,6.38,5.65,9.72,8.3,1.59,1.86,3.8,3.25,4.44,5.83Z"/>
  <path class="cls-8" d="M64.96,113.95c1.9-.77,3.1-2.3,4.22-3.91l2.67-2.11c1.3,.4,2.35,1.25,3.21,2.21,3.48,3.93,7.07,7.29,12.86,4.28,.37-.19,.92,.2,1.23,.63-2.01,1.88-4.39,3.11-6.98,3.99-2.56,1.1-5.01,2.44-7.48,3.72-1.77,.92-3.53,3.59-5.5,1.59-2.3-2.33-6.44-3.84-5.34-8.42,.37-.66,.74-1.31,1.11-1.97Z"/>
  <path class="cls-21" d="M119,98.27c-1.61-1.43-1.15-3.35-1.15-5.13-.02-7.78,.02-15.57,.04-23.35,.98,.41,1.96,.81,2.93,1.22,1.22,.77,2.45,1.51,2.93,3,.9,6.64,.83,13.29,.06,19.93-.77,2.36-3.7,2.29-4.82,4.28v.04Z"/>
  <path class="cls-15" d="M89.14,115.04c-6.52,4.04-11.03,1.06-14.97-4.2-.74-.99-2.38-1.27-2.32-2.91,.34-1.82,2.54-2.06,3.13-3.67,.96-.77,1.92-1.55,2.87-2.32,3.22,5.27,6.79,10.16,13.12,12.07-.34,.81-1.06,.97-1.82,1.04Z"/>
  <path class="cls-25" d="M63.85,115.92c.57,3.66,4.16,4.98,5.99,7.69,1.11,1.64,2.32-.01,3.35-.61,2.85-1.66,5.54-3.63,8.97-3.97-4.37,3.2-9.11,5.74-14.02,7.98-1.1,.33-2.04,1-3.05,1.49-5.14,2.51-7.71,1.24-9.24-4.59,2.03-3.3,5.39-5.27,8-7.99Z"/>
  <path class="cls-37" d="M122.83,94.92c0-7.32,0-14.64,0-21.96,1.12-.66,1.47,.54,2.17,.9,1.71-.07,2.67,1.21,3.83,2.15,1.95,2.22,1.42,4.94,1.32,7.47-.11,2.85,.59,5.09,3.06,6.63-2.06,1.77-4.36,3.13-6.96,3.97-1.2,.05-2.08,1.39-3.42,.85Z"/>
  <path class="cls-18" d="M55.85,123.91c2.83,6.04,7.35,5.39,12.29,3.1-4.84,3.83-10.69,5.87-15.9,9.05-2.54,.1-5.43,2.37-7.39-1.17,3.05-4.28,7.37-7.27,11-10.97Z"/>
  <path class="cls-11" d="M253.77,42.63c0,3.33,0,6.66,0,9.99,0,1.37,.15,2.68-1.96,2.56-1.52-.09-1.99-.72-1.99-2.14,.03-7.16,.03-14.31,0-21.47,0-1.49,.67-2.04,2.09-2.12,1.69-.09,1.86,.91,1.86,2.2-.02,3.66,0,7.32,0,10.98Z"/>
  <path class="cls-3" d="M133.21,90.1c-3.19,.82-4.87,.19-4.46-3.69,.36-3.43,.08-6.93,.07-10.41,2.37,.61,4.59,1.34,6.35,3.29,4.52,5.04,4.14,7.44-1.96,10.8Z"/>
  <path class="cls-26" d="M54.89,42.85c-3.69-3.33-7.38-6.67-11.07-10,.3-.31,.61-.61,.91-.92,3.5-1.86,6.64-.43,9.77,1.07,1.45,1.6,3.3,2.53,5.35,3.12,.91,4.13-2.25,5.26-4.96,6.73Z"/>
  <path class="cls-1" d="M61.85,49.95c-1.82-1.51-3.8-2.86-5-4.99-.9-4.2,2.48-5.36,5.04-7.1,2.58,1.53,6.23,.98,7.98,4.11-3.55,1.77-6.71,3.95-8.02,7.98Z"/>
  <path class="cls-30" d="M61.88,37.87c-1.09,2.78-4.76,3.74-5.04,7.1-.65-.7-1.3-1.41-1.96-2.11,1.19-2.59,4.56-3.56,4.96-6.73,1.13,.05,1.57,.91,2.04,1.74Z"/>
  <path class="cls-4" d="M54.5,33.01c-3.21-.78-6.45-1.26-9.77-1.07,3.73-3.95,6.72-1.15,9.77,1.07Z"/>
  <path class="cls-31" d="M44.85,134.88c2.21,2.01,4.97,.49,7.39,1.17-2.94,2.06-5.77,2.4-8.38-.55,.33-.21,.66-.41,.99-.62Z"/>
  <path class="cls-33" d="M122.83,94.92c1.09-.5,2.14-1.11,3.42-.85-2.18,1.81-4.6,3.18-7.26,4.16,.31-2.22,2.4-2.39,3.84-3.31Z"/>
  <path class="cls-15" d="M90.89,114.06c1.61-2.77,4.34-3.56,7.23-4.04-2.14,1.83-4.56,3.16-7.23,4.04Z"/>
  <path class="cls-24" d="M99.81,59.01c-2.3-.82-4.97-1.06-5.99-3.87,2.1,1.13,4.66,1.54,5.99,3.87Z"/>
  <path class="cls-28" d="M125,73.86c-.72-.3-1.45-.6-2.17-.9-.67-.65-1.34-1.3-2-1.94,2.02,.03,3.69,.56,4.18,2.84Z"/>
  <path class="cls-36" d="M332.25,108.9c.05,5.81-3.89,10.5-8.94,10.65-5.3,.16-9.88-4.55-10.01-10.31-.14-6.05,4.31-10.89,9.93-10.81,5.22,.07,8.98,4.43,9.03,10.47Z"/>
  <path class="cls-36" d="M413.91,88.83c.49-2.28-1.35-6.8,.86-7.39,4.29-1.15,9.26-1.49,13.68,.35,5.98,2.5,7.1,10.01,2.34,14.37-2.02,1.85-13.47,3.28-15.85,2.09-1.19-.6-1.01-1.57-1.02-2.53-.03-2.16,0-4.31,0-6.88Z"/>
  <path class="cls-22" d="M110.74,98.08c-1.66-1.67-3.31-3.33-4.97-5-2.53-5.6-1.35-11.43-1.1-17.2,1.36-1.96,3.02-3.62,4.98-4.98,.83,.15,1.93,.41,1.92,1.25-.08,8.65,1.41,17.36-.84,25.93Z"/>
  <path class="cls-16" d="M104.67,75.87c2.52,5.6,.54,11.48,1.1,17.2-3.06-3.04-6.13-6.09-9.19-9.13,2.41-2.98,5.09-5.7,8.1-8.08Z"/>
  <path class="cls-27" d="M474.44,109.84c2.2,.57,5.68-.66,6.1,3.04,.33,2.91-4.64,6.56-8.36,6.51-2.95-.04-6.38-.59-6.12-4.25,.33-4.73,4.45-5.09,8.39-5.3Z"/>
  <path d="M284.54,98.44c5.47,.12,9.75,4.78,9.7,10.55-.05,5.9-4.89,10.87-10.3,10.57-5.32-.29-9.43-5.11-9.32-10.93,.11-5.92,4.4-10.32,9.92-10.19Z"/>
  <path class="cls-36" d="M235.79,109.06c-.06-5.95,4.01-10.48,9.53-10.62,5.62-.14,10.24,4.7,10.15,10.63-.09,5.71-4.56,10.43-9.92,10.47-5.34,.04-9.7-4.64-9.76-10.48Z"/>
  <path class="cls-29" d="M364.08,108.23c.46-5.15,2.62-8.08,6.74-9.58,3.4-1.24,6.09-.13,8.87,2.96-5.15,2.18-10.01,4.24-15.61,6.61Z"/>
  <path class="cls-36" d="M306.92,42.73c-.09,5.35-3.85,9.26-8.92,9.29-5.09,.03-9.33-4.36-9.29-9.63,.04-5.33,4.22-9.56,9.38-9.49,5.37,.08,8.94,4.05,8.84,9.82Z"/>
</svg>