<?xml version="1.0" encoding="UTF-8"?>
<svg id="_Слой_1" data-name="Слой 1" xmlns="http://www.w3.org/2000/svg" viewBox="0 0 835.67 835.54">
  <defs>
    <style>
      .cls-1 {
        fill: #fff;
      }
    </style>
  </defs>
  <path class="cls-1" d="M2.03,565.18C.04,516.56,.05,467.93,.1,419.3c.03-27.83-.36-55.67,.21-83.48,.55-27.29,.9-54.6,2.06-81.86,1.11-26.08,3.43-52.18,9.8-77.65,8.22-32.85,21.81-63.02,43.44-89.53,21.62-26.5,47.98-46.54,78.93-60.55,24.15-10.93,49.72-16.97,76-20.19,25.14-3.09,50.39-3.65,75.69-4.32,15.62-.41,31.24-.38,46.85-.86,50.98-1.58,101.95-.42,152.93-.63,18.11-.08,36.24,.22,54.34,.89,30.92,1.15,61.92,1.26,92.61,5.9,28.19,4.26,55.34,11.95,80.68,25.28,24.01,12.63,44.68,29.49,62.5,49.92,14.57,16.7,26.52,35.09,35.03,55.53,6.21,14.91,10.78,30.36,14.33,46.19,3.83,17.13,5.03,34.54,7.22,51.84,.62,4.93,.28,9.98,.49,14.97,3.89,95.93,2.14,191.9,1.65,287.86-.16,31.74-.9,63.64-5.88,95.11-5.16,32.65-14.58,64.03-32.32,92.29-18.16,28.92-41.63,52.65-70.78,70.71-26.18,16.22-54.74,25.51-84.9,30.78-24.86,4.35-49.89,5.11-75.03,6.08-89.45,3.48-178.9,1.28-268.35,1.31-18.76,0-37.57-1.24-56.35-2.29-26.56-1.48-52.76-4.94-78.18-12.56-51.04-15.29-91.76-45.02-121.06-89.71-18.08-27.58-28.28-58.23-33.86-90.61-4.25-24.69-5.01-49.62-6.1-74.54Zm470.26,193.93c14.88,2.97,32.84-.57,50.84,.36,11.8,.61,23.91-.43,35.88-1.17,27.1-1.67,54.07-3.61,80.79-9.03,30.55-6.19,55.89-20.98,76.69-43.77,19.07-20.89,29.68-45.79,34.59-73.56,4.62-26.14,6.65-52.52,7.63-78.91,1.23-33.08,1.07-66.23,1.1-99.34,0-8.46-.85-16.95-.76-25.45,.34-30.62,.64-61.23,.86-91.85,.06-8.32-1.11-16.61-.76-24.95,.67-15.99-.33-31.97-1.45-47.88-1.4-19.9-2.68-39.84-6.66-59.48-2.95-14.56-6.3-29-13.18-42.29-8.89-17.17-20.33-32.29-35.24-44.86-18.94-15.97-40.48-26.11-64.72-30.64-16.85-3.15-33.81-5.18-50.92-6.68-18.91-1.66-37.83-2.67-56.73-3.01-32.13-.57-64.29-.93-96.44,.39-15.25,.63-30.58-.55-45.87-.65-22.66-.15-45.33-.1-68-.09-9.3,0-18.57,.77-27.9,.5-7.61-.22-15.25,1.09-22.88,1.45-25.97,1.21-51.74,3.56-77.17,9.5-21.9,5.12-41.36,14.89-58.48,29.06-24.19,20.02-38.97,46.14-46.12,76.5-5.35,22.73-7.19,46.01-8.91,69.23-1.96,26.39-1.83,52.85-2.15,79.29-.22,18.82,.87,37.67,.47,56.45-.39,18.47,.47,36.92-.15,55.4-1.11,33.1-.7,66.25,.77,99.34,1.07,23.91,3.16,47.73,6.55,71.49,6.35,44.47,26.2,80.38,64,105.37,25.79,17.05,55.31,22.12,85.35,25.23,11.94,1.24,23.95,1.34,35.84,2.45,21.6,2.02,43.28,2.44,64.84,2,17.8-.36,35.56,.62,53.38-.11,27.25-1.11,54.58-.29,84.91-.29Z"/>
  <path class="cls-1" d="M632.29,417.99c1.72,118.26-95.87,211.48-207.38,214.56-124.84,3.45-222.95-96.92-221.64-216.89,1.27-116.25,95.24-215.5,221.14-212.44,113.67,2.77,209.3,96.92,207.87,214.77Zm-215.54,138.16c77.44,1.12,141.75-64.21,139.51-142.09-2.1-72.81-61.36-135.15-139.7-134.46-76.57,.67-141.64,64.51-136.29,147.88,4.53,70.63,63.11,127.67,136.48,128.67Z"/>
  <path class="cls-1" d="M641.07,144.75c24.15-1.09,47.63,19.88,49.99,44.09,3.04,31.06-17.85,56.26-50.62,57.22-23.86,.7-49.84-18.38-50.5-50.2-.55-26.44,20.13-50.94,51.13-51.11Z"/>
</svg>